<svg xmlns="http://www.w3.org/2000/svg" viewBox="0 0 160 50" width="160" height="50">
  <g fill="#000000" transform="translate(10, 8)">
    <path d="M29.5 0c-4.3 0-8 3-8.8 7.3h6.9c.4-1.6 1.9-2.9 3.7-2.9 2.1 0 3.8 1.7 3.8 3.8v1.3c0 2.1-1.7 3.8-3.8 3.8H20.7v4.9h10.6v-4.9c4.3 0 7.8-3.5 7.8-7.8v-1.3C39.1 3.5 34.8 0 29.5 0zM20.7 12.3h-4.8v11.9h4.8V12.3z"/>
    <path d="M7.8 17.2c-4.3 0-7.8 3.5-7.8 7.8v1.3c0 4.3 3.5 7.8 7.8 7.8h17.9c4.3 0 7.8-3.5 7.8-7.8v-1.3c0-4.3-3.5-7.8-7.8-7.8H7.8zm10.7 11.2c0 1.7-1.3 3-3 3s-3-1.3-3-3v-1.3c0-1.7 1.3-3 3-3s3 1.3 3 3v1.3z"/>
  </g>
  <text x="60" y="31" font-family="'Inter', 'Helvetica Neue', Arial, sans-serif" font-size="14" font-weight="600" letter-spacing="0.5" fill="#000000">PlayStation</text>
</svg>
